<svg xmlns="http://www.w3.org/2000/svg" xmlns:xlink="http://www.w3.org/1999/xlink" width="314" height="59.681" viewBox="0 0 314 59.681">
  <defs>
    <clipPath id="clip-path">
      <rect id="長方形_716" data-name="長方形 716" width="314" height="59.681" fill="#004b9e"/>
    </clipPath>
  </defs>
  <g id="グループ_41" data-name="グループ 41" transform="translate(0)">
    <path id="パス_260" data-name="パス 260" d="M1.144,10.468,0,17.159H15.01L8.379,54.776h7.535l6.57-37.617H37.555l1.085-6.691Z" transform="translate(0 -8.961)" fill="#004b9e"/>
    <path id="パス_261" data-name="パス 261" d="M218.8,107.2l-11.092,16.7-5.124-16.7h-7.716l8.259,23.873-14.769,20.375h8.258L227.364,107.2Z" transform="translate(-161.245 -91.767)" fill="#004b9e"/>
    <g id="グループ_40" data-name="グループ 40" transform="translate(0)">
      <g id="グループ_39" data-name="グループ 39" clip-path="url(#clip-path)">
        <path id="パス_262" data-name="パス 262" d="M488.064,116.344c0,9.283-6.391,18.265-16.82,18.265-4.28,0-7.053-1.869-8.319-3.677l-3.014,16.939h-7.233l7.776-44.249h6.51l-.3,3.376a12.85,12.85,0,0,1,9.827-3.978c7.535,0,11.574,5.785,11.574,13.322m-22.185-2.231-1.869,10.37c1.206,2.17,3.135,3.737,6.934,3.737,5.727,0,9.765-5.606,9.765-11.334,0-4.581-2.411-7.475-6.028-7.475-4.34,0-6.932,2.472-8.8,4.7" transform="translate(-387.511 -88.191)" fill="#004b9e"/>
        <path id="パス_263" data-name="パス 263" d="M767.834,118.573l-.482,2.472H746.133c-.3,4.46,1.869,7.6,6.691,7.6a11.068,11.068,0,0,0,8.016-3.557l4.584,4.28a18.455,18.455,0,0,1-13.5,5.245c-8.5,0-13.081-5.425-13.021-12.9,0-9.464,6.752-18.686,17.24-18.686,9.285,0,13.262,6.872,11.7,15.552m-20.8-2.592h14.107c.663-4.22-.844-7.174-5.425-7.174-4.643,0-7.716,3.316-8.682,7.174" transform="translate(-632.526 -88.19)" fill="#004b9e"/>
        <path id="パス_264" data-name="パス 264" d="M1033.262,24.442a26.256,26.256,0,0,1-8.077,18.689l8.319,12.056h-8.863l-5.3-7.656a26.284,26.284,0,0,1-12.961,3.376c-11.574,0-18.808-8.2-18.808-19.412,0-14.045,12-26.464,26.887-26.464,11.574,0,18.807,8.2,18.807,19.41m-38.038,6.752c0,7.776,4.762,12.779,12.3,12.779a16.668,16.668,0,0,0,7.9-1.989l-4.4-6.45,5.906-4.461,4.221,6.15a19.964,19.964,0,0,0,4.461-12.478c0-7.778-4.7-12.781-12.3-12.781-10.006,0-18.084,9.1-18.084,19.231" transform="translate(-845.398 -4.308)" fill="#004b9e"/>
        <path id="パス_265" data-name="パス 265" d="M1376.838,137.582h-6.511l.243-3.5a12.217,12.217,0,0,1-9.224,4.1c-7.6,0-10.61-6.09-9.224-13.866l3.015-17.121h7.233l-3.074,17.362c-.662,4.039.662,6.753,4.039,6.753,3.918,0,6.147-2.05,8.139-4.461l3.435-19.653h7.294Z" transform="translate(-1157.191 -91.767)" fill="#004b9e"/>
        <path id="パス_266" data-name="パス 266" d="M1606.375,53.344h-7.234l5.3-30.383h7.295Zm8.018-40.751a5.305,5.305,0,0,1-5.244,5.124,3.546,3.546,0,0,1-3.858-3.738,5.235,5.235,0,0,1,5.243-5.184,3.562,3.562,0,0,1,3.859,3.8" transform="translate(-1368.929 -7.529)" fill="#004b9e"/>
        <path id="パス_267" data-name="パス 267" d="M1753.437,109.954l-5.547,3.618a6.6,6.6,0,0,0-6.33-4.221c-6.028,0-10.126,5.425-10.126,11.634,0,4.342,2.169,7.294,6.871,7.294a9.63,9.63,0,0,0,7.777-4.4l4.882,4.159a16.878,16.878,0,0,1-13.443,6.571c-8.679,0-13.381-5.668-13.381-13.141a18.066,18.066,0,0,1,18.084-18.446,11.615,11.615,0,0,1,11.213,6.932" transform="translate(-1475.933 -88.191)" fill="#004b9e"/>
        <path id="パス_268" data-name="パス 268" d="M1961.281,32.674l14.467-17.242h8.982l-11.755,13.262,7.6,17.121h-7.656l-5.124-11.333-9.705,11.333H1951.7L1959.774,0h7.294Z" transform="translate(-1670.73 0)" fill="#004b9e"/>
      </g>
    </g>
  </g>
</svg>
