<svg width="208" height="20" fill="none" xmlns="http://www.w3.org/2000/svg"><path d="M95.5 18.33c0 .33-.13.65-.36.89-.23.24-.55.37-.89.37H80.58c-.66-.04-1.18-.59-1.18-1.25s.52-1.21 1.18-1.25h5.65v-3.67h-3.67c-.66-.04-1.18-.59-1.18-1.25s.52-1.21 1.18-1.25h3.67V7.21h-4.24l-.31 1.63c-.11.57-.61.98-1.18.98-.08 0-.15 0-.23-.02-.66-.13-1.08-.76-.96-1.42l.97-5.05c.15-.63.77-1.03 1.4-.91.64.12 1.06.72.97 1.36l-.18.9h3.75V3.55c0-.73.59-1.32 1.32-1.32s1.32.59 1.32 1.32V4.7h4.62c.47-.03.91.2 1.15.6.24.4.24.9 0 1.3s-.68.63-1.15.6h-4.62v3.71h3.96c.47-.03.91.2 1.15.6.24.4.24.9 0 1.3s-.68.63-1.15.6h-3.96v3.67h5.39c.33 0 .65.13.89.37s.37.55.37.88zm8.13-9.97h-1.57V6.85h3.46c.43.03.85-.19 1.07-.56.23-.37.23-.84 0-1.21a1.16 1.16 0 0 0-1.07-.56h-1.92V2.97c0-.64-.52-1.17-1.17-1.17s-1.17.52-1.17 1.17v1.55h-1.91a1.161 1.161 0 0 0 0 2.32h.37v7.36a6.7 6.7 0 0 1-1.21 3.42c-.36.53-.22 1.26.31 1.62.53.36 1.26.22 1.62-.31a8.836 8.836 0 0 0 1.61-4.73v-3.51h1.57c.72 0 .72.14.72.49v5.11c0 .81-.18.81-.34.81h-1.39a1.163 1.163 0 0 0-1.01 1.75c.21.36.59.58 1.01.58H104c1.29 0 2.68-.83 2.68-3.16v-5.1c0-1.77-1.14-2.81-3.05-2.81zm12.14-2.77c0-.64-.52-1.17-1.17-1.17h-4.88l.19-1.2c.1-.64-.33-1.23-.97-1.34-.64-.1-1.23.33-1.34.97l-.77 4.86c-.05.31.02.63.2.88.18.25.46.43.77.48h.19c.57 0 1.06-.42 1.15-.98l.21-1.36h2.57v3.05c-.08.88-.39 1.73-.9 2.45l-1.46-1.95c-.39-.49-1.11-.59-1.61-.21a1.16 1.16 0 0 0-.25 1.61l1.94 2.59c-1 1.36-2.48 3.24-2.5 3.26-.4.51-.31 1.24.19 1.64a1.137 1.137 0 0 0 1.62-.2c.06-.08 1.17-1.48 2.12-2.76l2.16 2.89c.22.29.57.46.93.45.25 0 .5-.08.69-.23.25-.18.42-.46.46-.77.04-.31-.03-.62-.22-.87l-2.58-3.45c.85-1.27 1.72-2.77 1.72-4.44V6.74h.37c.31 0 .61-.12.83-.34.22-.22.34-.51.35-.82zm7.37.27c.37-.53.24-1.25-.28-1.62l-2.05-1.44a1.169 1.169 0 1 0-1.35 1.91l2.09 1.44c.2.14.43.21.67.21.37 0 .72-.19.93-.5zm11.47 4.77c0-.64-.52-1.16-1.17-1.17h-2.68V8.13h2.68c.43.03.85-.19 1.07-.56.23-.37.23-.84 0-1.21a1.16 1.16 0 0 0-1.07-.56h-2.71l2-1.41c.52-.37.65-1.1.27-1.63-.37-.53-1.1-.65-1.63-.27l-1.88 1.36-1.68-1.31a1.17 1.17 0 0 0-1.44 1.84l1.85 1.45h-2.32c-.43-.03-.85.19-1.07.56-.23.37-.23.84 0 1.21.22.37.64.59 1.07.56h2.52v1.33h-2.52c-.64 0-1.17.52-1.17 1.17s.52 1.17 1.17 1.17h2.52c0 .45-.19 2.06-1.74 2.06h-1.14a1.161 1.161 0 0 0 0 2.32h1.14c1.46.04 2.82-.77 3.48-2.07l2.51 2.15c.21.18.48.28.76.28.5.01.95-.3 1.12-.76.17-.47.03-.99-.36-1.3l-3.16-2.69h2.39c.31 0 .61-.12.84-.34.22-.22.35-.52.35-.83zm-.24 6.64h-10.23a.733.733 0 0 1-.75-.55v-6.09a3.01 3.01 0 0 0-2.89-3.05h-1.21c-.64 0-1.17.52-1.17 1.17s.52 1.17 1.17 1.17h1.22c.34.07.58.38.57.72v4.58l-2.4 2.42c-.45.46-.45 1.2 0 1.65.46.45 1.2.45 1.65 0l1.13-1.15c.58.92 1.59 1.48 2.68 1.48h10.23c.43.03.85-.19 1.07-.56.23-.37.23-.84 0-1.21a1.16 1.16 0 0 0-1.07-.56zM15.26 5.21c0-.99-.79-1.79-1.78-1.81H1.97a1.81 1.81 0 1 0 0 3.62h11.51c.99-.01 1.78-.82 1.78-1.81zm.17 12.24c0-.99-.79-1.79-1.78-1.81H1.81a1.81 1.81 0 1 0 0 3.62h11.84c.98-.01 1.77-.81 1.78-1.79v-.02zm19.29-2.53V7.53c.01-2.38-1.9-4.32-4.27-4.34H21.3a1.81 1.81 0 1 0 0 3.62h8.25c.44-.03.87.13 1.19.44.31.31.47.75.44 1.19v5.6c.05.44-.1.88-.41 1.2-.31.32-.75.47-1.19.43H21.3a1.81 1.81 0 1 0 0 3.62h9.15a4.302 4.302 0 0 0 4.27-4.34v-.02zM54.4 5.21c0-.99-.79-1.79-1.78-1.81h-11.5a1.81 1.81 0 1 0 0 3.62h11.51c.98-.02 1.77-.82 1.77-1.81zm.17 12.24c0-.99-.79-1.79-1.78-1.81H40.95a1.81 1.81 0 1 0 0 3.62h11.84c.98-.01 1.77-.81 1.78-1.79v-.02zm19.29-2.53V7.53c.01-2.38-1.9-4.32-4.27-4.34h-9.15a1.81 1.81 0 1 0 0 3.62h8.25a1.513 1.513 0 0 1 1.6 1.63v5.6c0 1.06-.59 1.63-1.6 1.63h-8.25a1.81 1.81 0 1 0 0 3.62h9.15a4.302 4.302 0 0 0 4.27-4.34v-.02zM143.07 19.9c-1.3-.26-2.51-.87-3.5-1.75-.78-.78-1.28-1.67-1.5-2.67-.22-1-.37-2.05-.44-3.16.13-1.55.48-3.07 1.03-4.52a9.984 9.984 0 0 1 2.67-3.84c.46-.26.89-.55 1.31-.88.42-.32.92-.42 1.5-.29.26.13.43.31.5.53.06.23.06.47 0 .73-.52.33-1.04.63-1.56.92-.52.3-.98.71-1.36 1.22-.69 1-1.23 2.1-1.61 3.25-.36 1.15-.57 2.35-.63 3.55.07.83.25 1.61.54 2.33.32.75.8 1.41 1.41 1.94.39.26.81.43 1.26.53.45.1.87.31 1.27.63l.09.88c-.13.19-.27.32-.43.38-.16.06-.34.13-.53.19M201.03 19.9l-.53-.19a.937.937 0 0 1-.43-.39l.09-.88c.39-.33.81-.54 1.27-.63.45-.09.88-.28 1.26-.54.61-.53 1.1-1.19 1.42-1.94.29-.72.47-1.5.53-2.34-.07-1.22-.28-2.41-.63-3.55-.37-1.16-.91-2.25-1.6-3.25-.36-.5-.83-.92-1.37-1.22-.52-.29-1.03-.6-1.55-.92-.07-.26-.07-.5 0-.73.07-.23.23-.41.48-.53.58-.13 1.08-.04 1.5.29.42.33.86.62 1.32.88a9.633 9.633 0 0 1 2.67 3.84c.55 1.45.9 2.97 1.03 4.52-.06 1.06-.21 2.12-.44 3.15a5.438 5.438 0 0 1-3.16 3.8c-.58.29-1.19.5-1.84.63M179.54 19.25l-.58-.58-.1-.97c.26-3.24.39-6.48.39-9.73l-.09-.09-2.63 3.4h-.78l-.29-.2-.29-.78c1.91-2.95 4.09-5.71 6.51-8.26l1.94-1.85c.15-.13.34-.2.54-.19h.63c.26.13.42.31.49.53.06.23.06.47 0 .73l-2.34 2.04a9.983 9.983 0 0 0-1.99 6.9c.17 2.56.08 5.13-.24 7.67l.1.88c-.13.26-.31.42-.53.49a1.5 1.5 0 0 1-.73 0m6.51.78-.68-.29c-.19-.27-.29-.59-.29-.92v-1.03l.29-2.14V9.13l.38-4.86-.68-.19-.19-1.07.19-.3c.33-.19.67-.32 1.02-.38.36-.07.73-.1 1.12-.1 1.42.19 2.88.27 4.37.25 1.49-.04 2.92.2 4.28.73l.1.88c-.13.19-.28.32-.44.38-.16.07-.33.13-.53.19-1.21-.2-2.42-.29-3.65-.29-1.25 0-2.5-.06-3.74-.19l-.29 3.5h.68l1.27-.2h4.95c.39.13.78.23 1.17.29.39.07.71.27.98.58.13.19.19.45.19.78V10l-1.26 3.89c.53.14 1.04.37 1.5.68l1.42.98.19 1.07c-.13.26-.31.42-.54.48-.22.07-.46.07-.73 0l-.29-.19-1.85-1.26-.29-.1c-.32.65-.58 1.3-.78 1.94-.21.67-.54 1.29-.98 1.84l-.87.1-.3-.19a.754.754 0 0 1-.19-.53v-.63l1.26-3.2-3-1.65-.2-1.08.19-.29c.2-.13.41-.19.63-.19h.63l2.43 1.36 1.17-3.6-.38-.1h-5.06c-.39 0-.73.06-1.02.19-.3.13-.64.2-1.02.2v5.92l-.3 2.92.1.88c-.13.19-.27.32-.43.38-.16.06-.34.13-.53.19v.02zM173.03 8.09c0 .98-.7 1.64-1.62 1.64s-1.62-.66-1.62-1.63.7-1.6 1.62-1.6 1.62.67 1.62 1.6m0 8.71c0 .98-.7 1.64-1.62 1.64s-1.62-.66-1.62-1.64.7-1.59 1.62-1.59 1.62.66 1.62 1.59M156.72 19.07h-.08c-.49-.01-.96-.02-1.42-.02-.44 0-.85 0-1.21.02h-.08c-.7 0-1.03-.43-1.03-.88 0-.4.25-.82.73-.95.08-.02.17-.12.17-.26 0-.16-.9-1.61-.95-1.68-1.15-1.89-1.71-2.38-2.06-2.38-1.05 0-1.19 0-1.19.4 0 .87.03 2.3.06 3.4 0 .23.16.39.39.42.78.03 1.13.5 1.13.95 0 .5-.39 1-1.07 1h-.07c-.35-.02-.75-.02-1.13-.02l-1.51.02c-.76.03-1.18-.42-1.18-.97 0-.48.38-.98 1.13-.98.25 0 .26 0 .26-4.09 0-1.92 0-4.02-.02-4.71 0-.33-.07-.43-.17-.43-.83.04-1.18-.5-1.18-1s.37-1 1.07-1h1.11c.83 0 1.63-.05 2.48-.05.38 0 .78 0 1.19.03 2.96.21 4 1.94 4 3.42s-.91 2.84-2.34 3.17c-.14.03-.28.06-.28.17 0 .02.02.06.05.12.52.68.87 1.18 1.26 1.8.42.64.68 1.08 1.17 1.8.27.39.48.52.73.6l.13.03c.73.07 1.05.54 1.05 1.03 0 .52-.42 1.06-1.15 1.06zM151.9 7.73c-.21-.02-.57-.02-.92-.02-1.21 0-1.28.08-1.33.58-.03.42-.02 1.56-.03 2.54 0 .4.29.43 1.42.43.33 0 .66-.01.98-.05 1.18-.13 1.96-1.03 1.96-1.89 0-.78-.64-1.5-2.09-1.58zM162.91 19.22c-2.42 0-4.22-1.79-4.22-4.45s1.9-4.52 4.19-4.52c2.49 0 3.85 1.86 3.85 3.12 0 .87-.58 1.58-1.79 1.63-.38.02-.9.02-1.43.02l-2.65-.02c-.08 0-.12.17-.12.35.02 1.28 1.1 2.04 2.18 2.04.84 0 1.64-.37 2.17-1.02.2-.22.42-.33.67-.32.53 0 1.03.49 1.03 1.03 0 .23-.09.46-.29.69a4.435 4.435 0 0 1-3.59 1.46zm-.02-7.27c-1.16 0-1.98.85-1.98 1.3 0 .11.14.13 1.64.13.64 0 1.35 0 1.82-.02.14 0 .29-.07.29-.26 0-.28-.31-1.14-1.79-1.14" fill="black"/></svg>