<svg xmlns="http://www.w3.org/2000/svg" width="41.309" height="40.103" viewBox="0 0 41.309 40.103">
  <path id="Cart" d="M113.294,85.042H83.461L81.743,81a1.411,1.411,0,0,0-.975-.821l-5.534-1.3a1.411,1.411,0,1,0-.646,2.747l4.839,1.139,12.387,29.118a4.666,4.666,0,1,0,8.358.469h5.081a4.666,4.666,0,1,0,4.3-2.844l-15.67.022-1.933-4.543h21.348a1.411,1.411,0,0,0,1.411-1.411V86.453A1.411,1.411,0,0,0,113.294,85.042Zm-3.743,27.29a1.844,1.844,0,1,1-1.844,1.844A1.844,1.844,0,0,1,109.551,112.332Zm-13.669,0a1.844,1.844,0,1,1-1.844,1.844A1.844,1.844,0,0,1,95.882,112.332Zm16-18.729h-9.354a1.411,1.411,0,0,0,0,2.822h9.354v5.739H90.745l-6.083-14.3h27.221Z" transform="translate(-73.446 -78.788)" fill="#004b9e" stroke="#515c6f" stroke-width="0.1"/>
</svg>
