<svg id="グループ_1356" data-name="グループ 1356" xmlns="http://www.w3.org/2000/svg" xmlns:xlink="http://www.w3.org/1999/xlink" width="196.871" height="25" viewBox="0 0 196.871 25">
  <defs>
    <clipPath id="clip-path">
      <rect id="長方形_1219" data-name="長方形 1219" width="196.871" height="25" fill="#fff"/>
    </clipPath>
  </defs>
  <g id="グループ_1355" data-name="グループ 1355" transform="translate(0 0)" clip-path="url(#clip-path)">
    <path id="パス_773" data-name="パス 773" d="M22.565,11.08c0,8.215-6.267,13.669-15.2,13.669H0L4.188.886h6.852c7.143,0,11.526,3.9,11.526,10.194M7.6,4.619l-2.889,16.4H7.889c5.975.1,10.553-3.831,10.553-9.936,0-4.123-2.565-6.461-7.63-6.461Z" transform="translate(0 -0.074)" fill="#fff"/>
    <path id="パス_774" data-name="パス 774" d="M41.335,10.956l.487-1.916h3.539L42.472,25.4H38.965l.2-1.818a6.894,6.894,0,0,1-5.325,2.142c-4.026,0-6.2-3.117-6.2-7.175,0-5,3.442-9.838,9.059-9.838a5.194,5.194,0,0,1,4.642,2.24m-9.741,7.305c0,2.467,1.266,4.026,3.247,4.026a6.042,6.042,0,0,0,4.741-2.532l1.005-5.584a3.888,3.888,0,0,0-3.733-2.013c-3.084,0-5.26,2.987-5.26,6.1" transform="translate(-2.311 -0.729)" fill="#fff"/>
    <path id="パス_775" data-name="パス 775" d="M57.713,8.569h4.935l-.617,3.312H57.1l-1.2,7.175c-.325,1.721.455,2.7,2.044,2.7a5.134,5.134,0,0,0,2.306-.52l.52,3.215a7.967,7.967,0,0,1-3.734.812c-3.409,0-5.746-2.4-5.064-6.331L53.2,11.881H50.116l.617-3.312h3.084l.941-5.486h3.929Z" transform="translate(-4.192 -0.258)" fill="#fff"/>
    <path id="パス_776" data-name="パス 776" d="M79.146,10.956l.487-1.916h3.54L80.283,25.4H76.776l.2-1.818a6.894,6.894,0,0,1-5.325,2.142c-4.026,0-6.2-3.117-6.2-7.175,0-5,3.442-9.838,9.059-9.838a5.194,5.194,0,0,1,4.642,2.24m-9.741,7.305c0,2.467,1.266,4.026,3.247,4.026a6.042,6.042,0,0,0,4.741-2.532L78.4,14.171a3.889,3.889,0,0,0-3.734-2.013c-3.084,0-5.26,2.987-5.26,6.1" transform="translate(-5.474 -0.729)" fill="#fff"/>
    <path id="パス_777" data-name="パス 777" d="M118.739,7.412c0,5.357-4.351,8.864-9.805,8.864h-4.805l-1.462,8.474H98.609L102.8.886h8.539c4.124,0,7.37,2.533,7.4,6.526M106.272,4.393l-1.494,8.376h4.383c3.019,0,5.454-1.786,5.454-5.033,0-2.11-1.526-3.344-3.928-3.344Z" transform="translate(-8.248 -0.074)" fill="#fff"/>
    <path id="パス_778" data-name="パス 778" d="M135.415,10.956,135.9,9.04h3.539L136.552,25.4h-3.507l.2-1.818a6.894,6.894,0,0,1-5.325,2.142c-4.026,0-6.2-3.117-6.2-7.175,0-5,3.442-9.838,9.059-9.838a5.194,5.194,0,0,1,4.642,2.24m-9.741,7.305c0,2.467,1.266,4.026,3.247,4.026a6.042,6.042,0,0,0,4.741-2.532l1.005-5.584a3.887,3.887,0,0,0-3.733-2.013c-3.084,0-5.26,2.987-5.26,6.1" transform="translate(-10.181 -0.729)" fill="#fff"/>
    <path id="パス_779" data-name="パス 779" d="M159.913,12.45,156.925,14.4a3.554,3.554,0,0,0-3.409-2.273c-3.247,0-5.455,2.922-5.455,6.266,0,2.338,1.169,3.928,3.7,3.928a5.186,5.186,0,0,0,4.189-2.369l2.63,2.24a9.09,9.09,0,0,1-7.24,3.539c-4.675,0-7.208-3.051-7.208-7.078a9.731,9.731,0,0,1,9.74-9.935,6.255,6.255,0,0,1,6.04,3.734" transform="translate(-12.056 -0.729)" fill="#fff"/>
    <path id="パス_780" data-name="パス 780" d="M167.283,24.737h-3.9l2.857-16.363h3.928ZM171.6,2.789a2.857,2.857,0,0,1-2.824,2.76A1.91,1.91,0,0,1,166.7,3.535,2.819,2.819,0,0,1,169.523.744,1.918,1.918,0,0,1,171.6,2.789" transform="translate(-13.666 -0.062)" fill="#fff"/>
    <path id="パス_781" data-name="パス 781" d="M188.228.649,186.573,3.9a2.267,2.267,0,0,0-1.591-.455,2.9,2.9,0,0,0-2.792,2.728l-.39,2.142h3.994l-.585,3.312h-3.993L178.91,24.675h-3.928l2.3-13.052h-2.857l.585-3.312H177.9l.358-2.045A7.258,7.258,0,0,1,185.4,0a5.424,5.424,0,0,1,2.825.65m1.558,24.026h-3.9l2.856-16.363h3.928ZM194.1,2.727a2.857,2.857,0,0,1-2.825,2.76A1.911,1.911,0,0,1,189.2,3.473,2.82,2.82,0,0,1,192.027.682,1.918,1.918,0,0,1,194.1,2.727" transform="translate(-14.59 0)" fill="#fff"/>
    <path id="パス_782" data-name="パス 782" d="M213.4,12.45,210.413,14.4A3.555,3.555,0,0,0,207,12.125c-3.247,0-5.455,2.922-5.455,6.266,0,2.338,1.169,3.928,3.7,3.928a5.186,5.186,0,0,0,4.189-2.369l2.63,2.24a9.09,9.09,0,0,1-7.241,3.539c-4.674,0-7.207-3.051-7.207-7.078a9.731,9.731,0,0,1,9.74-9.935,6.256,6.256,0,0,1,6.04,3.734" transform="translate(-16.53 -0.729)" fill="#fff"/>
  </g>
</svg>
